:SAMPLES-PER-SECOND 30
:FULLY-SPECIFIED
:DEGREES
413
root  43.1503 37.8971 5.03941 -174.586 -55.518 168.486
RightUpLeg  21.2949 -2.96764 -16.7087
RightLeg  22.3484 8.19185 3.50822
RightFoot  -15.7936 0.406488 13.795
RightToes  0.00048216 0.542163 -0.142577
Spine  12.8924 3.81047 -4.72888
Spine1  12.2017 4.59526 -2.9616
HEad  -18.2416 8.90212 -1.78402
LeftShoulder1  6.61703 -11.4389 -38.1238
LeftArm  -12.4371 14.5461 -27.0487
LeftForeArm  119.668 -76.3145 -130.023
LeftHand  -0.25398 0.0180481 5.50724
RightShoulder  4.77492 8.60493 33.4901
RightArm  -18.2857 -33.9271 25.8396
RightForeArm  89.9919 71.5116 140.02
RightHand  0.189344 -14.0595 -3.75987
LeftUpLeg  -23.3166 23.8327 -8.90816
LeftLeg  19.3702 6.05384 2.95445
LeftFoot  3.85363 -0.600053 4.35543
LeftToes  1.06243e-005 4.65856e-005 -8.18505e-006
414
root  41.5127 37.8905 4.65792 -174.226 -55.0135 167.302
RightUpLeg  17.2066 -0.145591 -17.3169
RightLeg  33.0126 4.87977 3.10062
RightFoot  -6.1212 -0.722086 15.6176
RightToes  0.00048216 0.542163 -0.142577
Spine  13.3592 3.64031 -7.3007
Spine1  11.2869 3.70731 -2.06444
HEad  -17.8491 10.0158 -2.1683
LeftShoulder1  6.75584 -11.6591 -38.386
LeftArm  -10.7859 14.5269 -27.416
LeftForeArm  115.636 -77.0789 -125.732
LeftHand  -0.25398 0.0180481 5.50724
RightShoulder  4.73531 8.56608 33.2899
RightArm  -19.0908 -35.8894 25.7653
RightForeArm  89.9551 71.8156 139.257
RightHand  0.0954504 -14.7641 -2.41074
LeftUpLeg  -22.0254 22.4927 -8.9384
LeftLeg  23.856 7.62274 4.02593
LeftFoot  0.995023 -0.515088 4.69969
LeftToes  1.06243e-005 4.65856e-005 -8.18505e-006
415
root  39.9824 37.9631 4.31437 -173.816 -53.6242 165.628
RightUpLeg  10.576 3.53012 -17.7108
RightLeg  45.4671 1.69709 1.57631
RightFoot  6.98872 -1.85909 12.0219
RightToes  0.00048216 0.542163 -0.142577
Spine  14.2087 3.68457 -9.6072
Spine1  10.8659 3.25768 -2.12276
HEad  -17.6199 11.0862 -2.93259
LeftShoulder1  6.93243 -12.0111 -38.5092
LeftArm  -9.53921 14.2659 -27.4118
LeftForeArm  111.829 -77.6417 -121.839
LeftHand  -0.25398 0.0180481 5.50724
RightShoulder  4.77572 8.7136 33.1476
RightArm  -20.1463 -37.0933 25.9857
RightForeArm  90.0865 72.009 138.773
RightHand  0.0277851 -15.3697 -1.54843
LeftUpLeg  -19.2151 22.5184 -9.66636
LeftLeg  26.1236 8.77398 4.99913
LeftFoot  -3.44379 -0.301015 4.65921
LeftToes  1.06243e-005 4.65856e-005 -8.18505e-006
416
root  38.5401 38.1242 3.96405 -173.94 -51.5402 164.097
RightUpLeg  3.5915 7.56665 -17.6862
RightLeg  56.1255 0.756932 0.843591
RightFoot  14.9334 -1.31892 5.95014
RightToes  0.00048216 0.542163 -0.142577
Spine  15.472 3.95717 -12.0685
Spine1  10.5612 2.87131 -2.00374
HEad  -17.4761 12.6669 -4.36687
LeftShoulder1  7.02503 -12.1896 -38.5879
LeftArm  -8.75765 14.0056 -27.1795
LeftForeArm  109.361 -77.9239 -119.482
LeftHand  -0.25398 0.0180481 5.50724
RightShoulder  4.78135 8.83103 32.8216
RightArm  -20.3129 -37.1522 25.9237
RightForeArm  89.4939 72.115 138.429
RightHand  0.038287 -15.5631 -1.65579
LeftUpLeg  -15.1425 23.1448 -10.3311
LeftLeg  26.2215 10.161 5.74511
LeftFoot  -6.23162 -0.161362 4.45603
LeftToes  1.06243e-005 4.65856e-005 -8.18505e-006
417
root  37.0598 38.521 3.60522 -175.236 -51.0595 164.89
RightUpLeg  -2.72243 8.72031 -16.2069
RightLeg  62.7419 0.581114 0.660293
RightFoot  14.6211 -0.354924 1.94355
RightToes  0.00048216 0.542163 -0.142577
Spine  16.1529 3.19178 -12.7325
Spine1  10.075 1.63535 -0.962696
HEad  -17.3976 14.6638 -6.0903
LeftShoulder1  7.01829 -12.1757 -38.5847
LeftArm  -8.4404 13.9275 -27.1957
LeftForeArm  107.292 -78.1148 -117.642
LeftHand  -0.25398 0.0180481 5.50724
RightShoulder  4.72599 8.82208 32.4007
RightArm  -19.7046 -36.5324 25.6104
RightForeArm  88.0785 72.2678 137.862
RightHand  0.0961764 -15.6828 -2.27285
LeftUpLeg  -10.8494 22.6269 -9.67143
LeftLeg  24.392 11.3051 5.91558
LeftFoot  -7.35162 -0.0869981 3.75685
LeftToes  1.06243e-005 4.65856e-005 -8.18505e-006
418
root  35.6243 38.9698 3.27777 -176.647 -53.2202 168.978
RightUpLeg  -9.84142 5.35044 -12.88
RightLeg  64.8376 -0.0280323 -0.670661
RightFoot  10.3329 -0.411796 2.59618
RightToes  0.00048216 0.542163 -0.142577
Spine  14.6335 0.755349 -10.519
Spine1  9.83089 -0.668514 0.0539404
HEad  -17.1103 16.587 -7.59599
LeftShoulder1  6.99661 -12.177 -38.4488
LeftArm  -8.37932 13.9866 -27.6854
LeftForeArm  104.899 -78.3327 -115.387
LeftHand  -0.25398 0.0180481 5.50724
RightShoulder  4.67816 8.77177 32.1681
RightArm  -19.3022 -36.2708 25.2971
RightForeArm  87.0843 72.3861 137.428
RightHand  0.140598 -15.9072 -2.71429
LeftUpLeg  -9.50173 19.8157 -7.68982
LeftLeg  22.9005 11.8469 5.68548
LeftFoot  -8.644 -0.0137201 2.78638
LeftToes  1.06243e-005 4.65856e-005 -8.18505e-006
